<?xml version="1.0" encoding="UTF-8" standalone="no"?>
<!-- Created with Inkscape (http://www.inkscape.org/) -->

<svg
   version="1.1"
   id="svg1"
   width="56.145969"
   height="68.88488"
   viewBox="0 0 56.14597 68.88488"
   sodipodi:docname="database.jpg"
   xmlns:inkscape="http://www.inkscape.org/namespaces/inkscape"
   xmlns:sodipodi="http://sodipodi.sourceforge.net/DTD/sodipodi-0.dtd"
   xmlns="http://www.w3.org/2000/svg"
   xmlns:svg="http://www.w3.org/2000/svg">
  <defs
     id="defs1" />
  <sodipodi:namedview
     id="namedview1"
     pagecolor="#505050"
     bordercolor="#eeeeee"
     borderopacity="1"
     inkscape:showpageshadow="0"
     inkscape:pageopacity="0"
     inkscape:pagecheckerboard="0"
     inkscape:deskcolor="#505050" />
  <g
     inkscape:groupmode="layer"
     inkscape:label="Image"
     id="g1"
     transform="translate(-5.352643,-1.2282627)">
    <path
       style="fill:#000000;stroke-width:1.68576"
       d="m 32.595549,69.608143 c -9.529055,-1.206367 -10.645143,-2.110216 -10.406857,-8.427864 0.180659,-4.789831 -0.113589,-4.637547 5.821587,-3.012885 5.358574,1.466828 22.962552,1.340312 28.59051,-0.205474 2.225204,-0.611179 4.227887,-1.001207 4.450407,-0.866729 0.609285,0.368215 0.48597,8.191341 -0.147791,9.375524 -1.511836,2.824892 -17.115844,4.554321 -28.30786,3.137428 z m 24.835146,-4.813471 c 0.685479,-1.109129 -0.287243,-3.181738 -1.654292,-3.524846 -1.762759,-0.442424 -2.951719,0.589941 -2.951719,2.562955 0,2.438739 3.271082,3.121852 4.606011,0.961891 z M 32.056106,57.430008 c -4.998201,-0.691223 -9.440263,-2.311899 -9.440263,-3.444262 0,-1.59419 2.434177,-2.059928 6.748808,-1.291267 5.743108,1.023149 19.477913,1.033123 24.783487,0.01801 5.925084,-1.133658 9.267284,0.794455 4.957597,2.860035 -3.729791,1.787642 -19.649711,2.880861 -27.049629,1.857495 z M 17.221407,57.001812 c -0.445039,-0.09242 -2.529485,-0.447601 -4.632099,-0.789324 -6.4954733,-1.05566 -7.2356557,-1.798137 -7.2356557,-7.258075 0,-5.216926 0.108914,-5.372466 3.0520219,-4.358485 1.1937127,0.411267 4.2722538,1.041795 6.8412018,1.401174 l 4.670818,0.653414 1.307624,2.339595 c 0.719194,1.286779 1.087393,2.475707 0.81822,2.642064 -0.269173,0.166352 -0.82086,1.443592 -1.225971,2.838297 -0.730084,2.513508 -1.4025,2.986822 -3.59616,2.53134 z M 34.066408,51.842694 C 23.626396,50.833725 21.974406,49.686541 22.190405,43.595686 c 0.17953,-5.062496 -0.251475,-4.841417 6.359317,-3.26194 6.139181,1.466799 21.881887,1.329267 27.708176,-0.242065 2.333309,-0.629286 4.457367,-1.011287 4.720129,-0.848888 0.87848,0.542931 0.569919,8.69346 -0.364492,9.627869 -2.601392,2.601395 -15.472392,4.042341 -26.547127,2.972032 z M 57.032344,47.45815 c 0.356032,-0.356033 0.647331,-1.157106 0.647331,-1.780163 0,-0.623057 -0.291299,-1.424132 -0.647331,-1.780164 C 56.67631,43.54179 55.875237,43.25049 55.25218,43.25049 c -0.623058,0 -1.424132,0.2913 -1.780164,0.647333 -0.356033,0.356032 -0.647332,1.157107 -0.647332,1.780164 0,0.623057 0.291299,1.42413 0.647332,1.780163 0.356032,0.356032 1.157106,0.647333 1.780164,0.647333 0.623057,0 1.42413,-0.291301 1.780164,-0.647333 z M 15.063635,44.512135 C 12.550118,44.121184 8.8666638,43.218493 7.3765656,42.628289 4.1618749,41.355005 6.9068987,38.571416 10.426325,39.535684 c 0.86146,0.236027 3.288955,0.588008 5.394434,0.782182 4.162175,0.383848 5.177749,1.065902 4.769219,3.202982 -0.265716,1.390005 -1.518319,1.614691 -5.526343,0.991287 z m 15.913583,-5.285948 c -5.117193,-0.807376 -8.361375,-2.066039 -8.361375,-3.244011 0,-1.591233 2.442631,-1.952145 7.382204,-1.090754 6.03443,1.052316 17.538669,1.033903 23.779125,-0.03806 5.269269,-0.905135 7.378034,-0.524108 7.032394,1.270663 -0.594944,3.089289 -18.266877,4.926932 -29.832348,3.102162 z M 11.359983,38.104041 C 5.6952244,36.874843 5.3536523,36.478374 5.3536523,31.132412 c 0,-5.431682 -0.1954973,-5.268788 4.8549927,-4.045356 2.225204,0.539033 5.383645,1.129423 7.018761,1.311975 3.279774,0.366174 6.382037,4.184757 4.600757,5.663089 -0.382807,0.317704 -0.850553,1.544057 -1.03943,2.725231 l -0.343413,2.147591 -2.825703,-0.04289 c -1.554137,-0.02358 -4.370973,-0.378189 -6.259634,-0.788011 z m 20.4264,-4.374415 c -8.465673,-1.276812 -9.81097,-2.409213 -9.599001,-8.079912 0.18447,-4.935015 -0.127342,-4.791921 6.901783,-3.167331 5.655026,1.307004 19.647878,1.297627 25.623571,-0.01717 6.908248,-1.519982 6.448906,-1.750645 6.629037,3.328835 0.208656,5.883743 -0.35015,6.367421 -8.991975,7.783058 -2.885944,0.472752 -17.711107,0.58271 -20.563415,0.152511 z m 25.245961,-4.073113 c 0.356032,-0.356033 0.647331,-1.157106 0.647331,-1.780163 0,-0.623057 -0.291299,-1.424132 -0.647331,-1.780164 -0.356034,-0.356033 -1.157107,-0.647333 -1.780164,-0.647333 -0.623058,0 -1.424132,0.2913 -1.780164,0.647333 -0.356033,0.356032 -0.647332,1.157107 -0.647332,1.780164 0,0.623057 0.291299,1.42413 0.647332,1.780163 0.356032,0.356033 1.157106,0.647332 1.780164,0.647332 0.623057,0 1.42413,-0.291299 1.780164,-0.647332 z M 13.111516,26.284758 C 8.5322897,25.439103 6.2413062,24.431088 5.9953021,23.153683 5.7169197,21.708166 8.0567107,21.072372 11.414273,21.681176 c 1.56211,0.283247 4.17532,0.702942 5.807134,0.932658 2.94987,0.415261 2.96694,0.428498 2.96694,2.300647 0,2.279818 -1.050364,2.4832 -7.076831,1.370277 z M 32.708129,21.5905 C 23.439675,20.530723 20.186046,18.123564 25.403598,16.18633 33.12332,13.320059 53.49324,13.594251 59.46641,16.644838 66.055349,20.009905 48.0268,23.342074 32.708129,21.5905 Z M 11.977978,20.318427 C 5.6820787,18.950361 5.6469326,18.91177 5.4682687,13.170695 c -0.085301,-2.74122 0.057923,-4.9840348 0.3182915,-4.9840348 0.2603678,0 2.3935365,0.5187105 4.7403758,1.1526892 7.749489,2.0934646 23.65975,1.6402186 32.452901,-0.9245051 1.114101,-0.3249518 1.21375,-0.1784728 1.21375,1.7841547 v 2.138169 l -6.12693,0.32835 c -11.570485,0.620077 -16.793861,2.510451 -17.399345,6.296935 -0.403078,2.520714 -2.106117,2.786473 -8.689334,1.355974 z M 15.272968,8.7351632 C 2.1573583,6.8781963 2.9721584,3.3702955 16.919737,1.6454669 29.620743,0.07479658 47.589554,3.227313 43.455457,6.3009957 40.569054,8.4470257 23.593542,9.9132288 15.272968,8.7351632 Z"
       id="path1" />
  </g>
</svg>
