<?xml version="1.0" encoding="UTF-8" standalone="no"?>
<!-- Created with Inkscape (http://www.inkscape.org/) -->

<svg
   version="1.1"
   id="svg1"
   width="173.33334"
   height="173.40535"
   viewBox="0 0 173.33335 173.40535"
   sodipodi:docname="frontend-dev.jpg"
   xmlns:inkscape="http://www.inkscape.org/namespaces/inkscape"
   xmlns:sodipodi="http://sodipodi.sourceforge.net/DTD/sodipodi-0.dtd"
   xmlns="http://www.w3.org/2000/svg"
   xmlns:svg="http://www.w3.org/2000/svg">
  <defs
     id="defs1" />
  <sodipodi:namedview
     id="namedview1"
     pagecolor="#505050"
     bordercolor="#eeeeee"
     borderopacity="1"
     inkscape:showpageshadow="0"
     inkscape:pageopacity="0"
     inkscape:pagecheckerboard="0"
     inkscape:deskcolor="#505050" />
  <g
     inkscape:groupmode="layer"
     inkscape:label="Image"
     id="g1"
     transform="translate(-54.238807,-25.050983)">
    <path
       style="fill:#000000"
       d="m 58.771747,197.43591 c -4.32826,-2.89006 -4.53294,-6.78614 -4.53294,-86.28587 0,-79.481594 0,-79.481594 3.32116,-82.802751 3.14917,-3.149174 3.99497,-3.301388 16.33333,-2.939394 13.01218,0.381763 13.01218,0.381763 13.35523,86.715095 0.34306,86.33334 0.34306,86.33334 -13.33333,86.31292 -7.52201,-0.0112 -14.33657,-0.46123 -15.14345,-1 z m 16.03422,-17.5363 c 4.98443,-5.50773 -0.68806,-13.61728 -7.2463,-10.35949 -1.82647,0.90729 -3.51907,3.03408 -3.76134,4.7262 -0.50814,3.54921 3.1413,8.19001 6.44048,8.19001 1.23935,0 3.29457,-1.15052 4.56716,-2.55672 z m 0.49951,-24.37662 c 4.1584,-4.1584 0.57509,-11.73333 -5.55044,-11.73333 -2.76166,0 -6.1829,3.68893 -6.1829,6.66667 0,5.39904 7.96258,8.83742 11.73334,5.06666 z m -1.36335,-24.4756 c 4.01094,-2.80937 3.83307,-7.95972 -0.36999,-10.71367 -3.08783,-2.02323 -3.57884,-2.02323 -6.66666,0 -4.20306,2.75395 -4.38093,7.9043 -0.37,10.71367 1.62984,1.14158 3.29634,2.0756 3.70333,2.0756 0.40699,0 2.07349,-0.93402 3.70332,-2.0756 z m 0.38433,-24.63798 c 2.92296,-1.56432 3.51431,-7.817794 0.97902,-10.353085 -3.77076,-3.770759 -11.73334,-0.332374 -11.73334,5.066665 0,2.97774 3.42124,6.66667 6.1829,6.66667 1.09583,0 3.15297,-0.62111 4.57142,-1.38025 z m -0.38433,-24.695357 c 3.71679,-2.603339 3.8094,-7.412092 0.20556,-10.673522 -2.51682,-2.277691 -3.0702,-2.321198 -6.33333,-0.497926 -4.7834,2.672718 -5.46207,8.241423 -1.355,11.118129 3.73266,2.614455 3.8253,2.615115 7.48277,0.05332 z m 0.86811,-25.352966 c 2.62,-2.620003 2.71141,-7.733528 0.17586,-9.837846 -3.33413,-2.767085 -9.21313,-1.167643 -10.63261,2.892708 -2.31417,6.619596 5.55546,11.846428 10.45675,6.945138 z M 100.46103,197.56744 c -0.488893,-0.48889 -0.888893,-39.1247 -0.888893,-85.85735 0,-76.250137 0.2164,-85.051503 2.109053,-85.77778 1.15998,-0.445125 12.27881,-0.809319 24.70852,-0.809319 18.86233,0 22.72642,0.330856 23.36723,2.000779 0.42227,1.100429 -2.09087,10.426119 -5.58476,20.723756 -5.00224,14.743227 -6.00549,19.065108 -4.71985,20.332555 2.55918,2.522982 4.71789,-1.489735 10.8927,-20.247841 8.35022,-25.366647 3.894,-22.809249 39.7447,-22.809249 28.79271,0 30.648,0.15093 33.96926,2.763441 3.51315,2.76344 3.51315,2.76344 3.51315,83.999998 0,79.45879 -0.0584,81.29492 -2.66667,83.90323 -2.54117,2.54118 -4.44444,2.66667 -40.44444,2.66667 -20.77778,0 -38.12069,-0.34291 -38.5398,-0.76202 -0.41911,-0.41911 2.11291,-9.3437 5.62671,-19.83242 3.70639,-11.06359 5.94885,-19.78213 5.34103,-20.7656 -1.81989,-2.94465 -4.7489,-0.46028 -6.54872,5.55458 -0.95543,3.193 -4.13155,12.55546 -7.05803,20.80546 -5.32088,15 -5.32088,15 -23.62659,15 -10.06814,0 -18.70571,-0.4 -19.1946,-0.88889 z M 135.2466,185.4578 c 0.30073,-0.91586 -1.2992,-2.71586 -3.55541,-4 -5.15777,-2.9356 -5.15777,-4.40068 0,-7.33628 4.66278,-2.65387 4.55914,-5.48025 -0.22187,-6.05053 -4.91866,-0.58669 -17.89718,6.46101 -17.89718,9.71867 0,1.90046 2.10708,3.71672 7.33334,6.32122 7.52105,3.7481 13.37223,4.29765 14.34112,1.34692 z m 39.35607,-0.92412 c 11.27511,-4.98639 11.26398,-8.50657 -0.0427,-13.50692 -4.02582,-1.7804 -8.46384,-3.2371 -9.86227,-3.2371 -3.54144,0 -4.87794,4.12883 -1.91465,5.91488 6.81703,4.1088 6.88221,4.2904 2.37633,6.62048 -5.22232,2.70056 -5.91574,7.46464 -1.0865,7.46464 1.74208,0 6.48048,-1.46519 10.52977,-3.25598 z m 0.72887,-51.07735 c 0.42607,-3 0.42607,-3 -31.55555,-3 -32.62558,0 -34.27706,0.2551 -32.52233,5.02377 0.48344,1.3138 7.64375,1.61087 32.13692,1.33333 31.51489,-0.3571 31.51489,-0.3571 31.94096,-3.3571 z m 2.89317,-11.64969 c 0.90517,-1.09066 1.29747,-2.89066 0.87178,-4 -1.14535,-2.98472 -66.84708,-3.03841 -67.99171,-0.0556 -0.41397,1.07878 0.1647,2.87878 1.28592,4 2.99613,2.99614 63.35128,3.04708 65.83401,0.0556 z m -25.9859,-16.68365 c 0,-3.33333 0,-3.33333 -19.47474,-3.70121 -16.14592,-0.305 -19.76335,-0.0201 -21.16326,1.66667 -1.36247,1.64168 -1.36247,2.42741 0,4.06909 1.39991,1.68678 5.01734,1.97166 21.16326,1.66666 19.47474,-0.36787 19.47474,-0.36787 19.47474,-3.70121 z m 18.85768,-12.683645 c 0.42569,-1.109339 0.0334,-2.909339 -0.87177,-4 -2.47327,-2.980102 -54.84867,-2.929781 -57.83402,0.05557 -1.12122,1.121222 -1.69989,2.921222 -1.28592,4 1.14212,2.976307 58.84878,2.922859 59.99171,-0.05557 z M 134.23881,53.789658 c 1.94808,-2.347293 0.0917,-5.367998 -4.12041,-6.704882 -2.75094,-0.873116 -3.54979,-4.628451 -0.98458,-4.628451 2.58498,0 6.30921,-4.118358 5.53908,-6.125275 -1.07749,-2.807902 -5.58923,-2.206638 -13.76742,1.834736 -10.17737,5.029294 -9.91105,7.677713 1.33333,13.259058 10.09384,5.010253 9.84515,4.961246 12,2.364814 z m 41.47417,-3.075278 c 6.31719,-2.741463 8.37069,-5.273003 6.60056,-8.137139 -1.32334,-2.141212 -14.26979,-8.120916 -17.58231,-8.120916 -3.56805,0 -4.92521,4.120536 -1.94816,5.914882 6.81703,4.108793 6.88221,4.290394 2.37633,6.620476 -6.67372,3.451112 -5.12554,10.013604 1.74607,7.401358 1.46667,-0.557554 5.43005,-2.212951 8.80751,-3.678661 z"
       id="path1" />
  </g>
</svg>
